<?xml version="1.0" standalone="no"?>
<!DOCTYPE svg PUBLIC "-//W3C//DTD SVG 20010904//EN"
 "http://www.w3.org/TR/2001/REC-SVG-20010904/DTD/svg10.dtd">
<svg version="1.0" xmlns="http://www.w3.org/2000/svg"
 width="1000.000000pt" height="1000.000000pt" viewBox="0 0 1000.000000 1000.000000"
 preserveAspectRatio="xMidYMid meet">
<metadata>
Created by potrace 1.11, written by Peter Selinger 2001-2013
</metadata>
<g transform="translate(0.000000,1000.000000) scale(0.100000,-0.100000)"
fill="#000000" stroke="none">
<path d="M7107 9301 c-22 -107 -165 -418 -273 -593 -191 -309 -450 -602 -754
-854 -131 -109 -322 -242 -533 -372 -271 -167 -279 -172 -487 -285 -36 -19
-202 -104 -370 -189 -168 -85 -334 -172 -370 -193 -65 -38 -205 -131 -226
-150 -6 -5 -29 -23 -50 -40 -114 -88 -259 -232 -399 -395 -50 -58 -96 -111
-102 -118 -7 -7 -34 -41 -60 -75 -26 -34 -50 -64 -53 -67 -18 -14 -189 -252
-249 -347 -59 -93 -132 -228 -168 -313 -9 -19 -11 5 -11 110 1 133 -11 508
-17 539 -1 9 -6 57 -9 106 -4 50 -9 101 -11 115 -4 28 -12 93 -20 160 -3 25
-7 56 -10 70 -3 14 -7 41 -10 60 -5 31 -48 244 -60 295 -13 58 -76 259 -100
320 -158 401 -431 698 -820 890 -109 54 -304 126 -378 139 l-38 7 35 -68 c56
-113 144 -345 161 -427 3 -10 9 -33 15 -50 30 -93 93 -415 106 -546 2 -25 6
-52 9 -60 2 -8 7 -51 10 -95 4 -44 8 -96 10 -115 22 -216 22 -692 0 -975 -3
-38 -8 -101 -11 -140 -3 -38 -7 -86 -9 -105 -3 -19 -7 -64 -10 -100 -3 -36 -7
-81 -10 -100 -2 -19 -7 -64 -10 -100 -3 -36 -8 -81 -10 -100 -3 -19 -7 -64
-10 -100 -3 -36 -8 -90 -11 -120 -11 -117 -23 -239 -29 -310 -2 -25 -6 -79
-10 -120 -3 -41 -8 -97 -10 -125 -2 -27 -7 -79 -10 -115 -36 -404 -41 -1065
-10 -1320 3 -25 10 -74 16 -110 5 -36 11 -79 14 -97 2 -18 6 -40 9 -50 3 -10
7 -29 10 -43 45 -233 148 -496 263 -675 173 -269 438 -463 768 -561 125 -38
260 -63 378 -70 l109 -7 -15 29 c-101 199 -248 702 -283 974 -3 25 -7 56 -10
70 -19 117 -27 537 -11 675 38 342 141 662 298 922 120 200 230 334 464 568
181 181 323 304 530 460 117 88 435 303 561 380 27 16 76 45 109 65 68 41 632
373 684 402 19 11 61 37 93 59 33 21 62 39 65 39 5 0 299 199 329 223 290 234
408 357 555 582 263 401 423 809 509 1295 21 118 29 182 45 365 12 129 6 395
-10 500 -3 17 -7 50 -10 75 -12 97 -60 309 -74 323 -5 5 -11 -5 -14 -22z"/>
<path d="M4386 4509 c-78 -11 -214 -53 -295 -92 -81 -38 -220 -127 -200 -128
118 -7 254 -51 319 -104 163 -134 266 -310 435 -745 64 -164 70 -177 154 -352
84 -176 207 -376 298 -489 240 -296 476 -487 801 -649 77 -38 143 -70 147 -70
4 0 21 -7 38 -15 87 -39 379 -127 500 -151 12 -2 45 -8 72 -14 82 -16 161 -28
257 -40 73 -9 414 -6 454 3 12 3 38 8 58 11 132 21 291 73 421 138 55 27 102
53 105 56 3 4 17 14 31 22 91 51 244 186 339 299 25 30 50 59 57 66 31 33 144
213 199 320 113 217 219 522 240 689 3 22 7 44 10 48 3 4 3 8 1 8 -2 0 -25
-36 -50 -79 -112 -192 -299 -365 -497 -459 -83 -39 -213 -78 -315 -96 -75 -13
-359 -15 -425 -3 -14 3 -45 8 -70 12 -160 24 -388 100 -556 186 -289 146 -465
288 -900 725 -155 156 -323 322 -375 370 -338 313 -634 482 -924 529 -89 15
-238 16 -329 4z"/>
</g>
</svg>
