<?xml version="1.0" standalone="no"?>
<!DOCTYPE svg PUBLIC "-//W3C//DTD SVG 20010904//EN"
 "http://www.w3.org/TR/2001/REC-SVG-20010904/DTD/svg10.dtd">
<svg version="1.0" xmlns="http://www.w3.org/2000/svg"
 width="180.000000pt" height="180.000000pt" viewBox="0 0 180.000000 180.000000"
 preserveAspectRatio="xMidYMid meet">
<metadata>
Created by potrace 1.11, written by Peter Selinger 2001-2013
</metadata>
<g transform="translate(0.000000,180.000000) scale(0.100000,-0.100000)"
fill="#000000" stroke="none">
<path d="M0 900 l0 -900 900 0 900 0 0 900 0 900 -900 0 -900 0 0 -900z m1169
353 c-6 -24 -15 -40 -20 -37 -4 2 -6 12 -3 22 3 9 -7 -5 -24 -33 -46 -78 -115
-135 -242 -199 -136 -69 -226 -131 -264 -180 -49 -65 -79 -144 -84 -223 -6
-95 10 -152 60 -208 45 -51 34 -59 -39 -26 -93 43 -130 142 -119 326 22 388
19 480 -19 569 -7 16 -5 17 16 11 53 -17 104 -61 132 -116 21 -41 31 -80 39
-156 l11 -102 27 42 c54 84 108 134 192 177 184 96 284 179 325 272 l18 41 3
-69 c2 -38 -2 -88 -9 -111z m-262 -569 c215 -70 290 -111 394 -211 49 -48 87
-88 85 -91 -3 -2 -17 5 -31 17 -15 11 -84 43 -153 70 -179 69 -267 111 -345
164 -37 25 -64 40 -61 34 3 -7 -5 2 -20 18 -27 32 -32 45 -17 45 5 0 72 -21
148 -46z"/>
</g>
</svg>
